<svg version="1.1" xmlns="http://www.w3.org/2000/svg" xmlns:xlink="http://www.w3.org/1999/xlink" width="1390.64517" height="1049.75711" viewBox="0,0,1390.64517,1049.75711"><defs><radialGradient cx="78.16823" cy="110.5742" r="188.6458" gradientUnits="userSpaceOnUse" id="color-1"><stop offset="0" stop-color="#c08bf5"/><stop offset="1" stop-color="#6e28b4"/></radialGradient><radialGradient cx="295.72947" cy="-110.82426" r="212.25639" gradientUnits="userSpaceOnUse" id="color-2"><stop offset="0" stop-color="#fcfcf1"/><stop offset="0.2699" stop-color="#fde754"/><stop offset="0.7423" stop-color="#eeba31"/><stop offset="1" stop-color="#e6a124"/></radialGradient><radialGradient cx="1267.4389" cy="201.83892" r="176.64503" gradientUnits="userSpaceOnUse" id="color-3"><stop offset="0" stop-color="#ff99e5"/><stop offset="1" stop-color="#ff00bf"/></radialGradient><radialGradient cx="1145.74421" cy="-244.20426" r="212.25556" gradientUnits="userSpaceOnUse" id="color-4"><stop offset="0" stop-color="#ffffff"/><stop offset="1" stop-color="#d7df23"/></radialGradient><radialGradient cx="1131.69341" cy="-77.63191" r="212.25446" gradientUnits="userSpaceOnUse" id="color-5"><stop offset="0" stop-color="#fcfcf1"/><stop offset="0.2577" stop-color="#f7941e"/><stop offset="0.7423" stop-color="#ef4136"/><stop offset="1" stop-color="#be1e2d"/></radialGradient><linearGradient x1="1067.49583" y1="-476.57561" x2="1076.27779" y2="-225.09064" gradientUnits="userSpaceOnUse" id="color-6"><stop offset="0" stop-color="#2e368f"/><stop offset="0.0234" stop-color="#333590"/><stop offset="0.3273" stop-color="#583393"/><stop offset="0.6019" stop-color="#6e3894"/><stop offset="0.8354" stop-color="#7c3895"/><stop offset="1" stop-color="#803895"/></linearGradient><radialGradient cx="692.08177" cy="-82.97683" r="168.88934" gradientUnits="userSpaceOnUse" id="color-7"><stop offset="0" stop-color="#99ffbb"/><stop offset="1" stop-color="#009933"/></radialGradient><radialGradient cx="852.65658" cy="-58.10002" r="166.98851" gradientUnits="userSpaceOnUse" id="color-8"><stop offset="0" stop-color="#00ffff"/><stop offset="1" stop-color="#0033cc"/></radialGradient><radialGradient cx="1239.80044" cy="313.8291" r="184.28996" gradientUnits="userSpaceOnUse" id="color-9"><stop offset="0" stop-color="#ffff99"/><stop offset="1" stop-color="#ff9400"/></radialGradient><radialGradient cx="1143.04876" cy="91.28618" r="194.10454" gradientUnits="userSpaceOnUse" id="color-10"><stop offset="0" stop-color="#cc99ff"/><stop offset="1" stop-color="#4c0099"/></radialGradient><radialGradient cx="238.6552" cy="-24.94948" r="178.81947" gradientUnits="userSpaceOnUse" id="color-11"><stop offset="0" stop-color="#99ffbb"/><stop offset="1" stop-color="#009933"/></radialGradient><radialGradient cx="75.37" cy="-63.61594" r="169.90035" gradientUnits="userSpaceOnUse" id="color-12"><stop offset="0" stop-color="#00ffff"/><stop offset="1" stop-color="#0033cc"/></radialGradient><radialGradient cx="957.16235" cy="-62.75178" r="212.25446" gradientUnits="userSpaceOnUse" id="color-13"><stop offset="0" stop-color="#ffffff"/><stop offset="1" stop-color="#ec008c"/></radialGradient><radialGradient cx="213.63305" cy="165.85559" r="158.10939" gradientUnits="userSpaceOnUse" id="color-14"><stop offset="0" stop-color="#ffc341"/><stop offset="1" stop-color="#ff7320"/></radialGradient><radialGradient cx="581.61585" cy="-49.78091" r="194.76394" gradientUnits="userSpaceOnUse" id="color-15"><stop offset="0" stop-color="#cc99ff"/><stop offset="1" stop-color="#4c0099"/></radialGradient><radialGradient cx="20.27885" cy="221.25613" r="189.01785" gradientUnits="userSpaceOnUse" id="color-16"><stop offset="0" stop-color="#ff9df8"/><stop offset="1" stop-color="#ff308b"/></radialGradient><radialGradient cx="126.54413" cy="353.4782" r="212.25584" gradientUnits="userSpaceOnUse" id="color-17"><stop offset="0" stop-color="#fcfcf1"/><stop offset="0.2699" stop-color="#fde754"/><stop offset="0.7423" stop-color="#eeba31"/><stop offset="1" stop-color="#e6a124"/></radialGradient><radialGradient cx="379.64211" cy="-49.79108" r="177.57482" gradientUnits="userSpaceOnUse" id="color-18"><stop offset="0" stop-color="#ff9df8"/><stop offset="1" stop-color="#ff308b"/></radialGradient></defs><g transform="translate(55.32258,164.87856)"><g data-paper-data="{&quot;isPaintingLayer&quot;:true}" fill-rule="nonzero" stroke-linecap="butt" stroke-linejoin="miter" stroke-miterlimit="10" stroke-dasharray="" stroke-dashoffset="0" style="mix-blend-mode: normal"><path d="M-21.23262,-110.65142h1324.60794v790.89326h-1324.60794z" fill="#ffffff" stroke="#ffffff" stroke-width="2"/><g stroke="none" stroke-width="1"><g fill="#f7941e"><g><path d="M311.53157,142.37911c-0.33184,-0.01659 0.12444,-13.82127 -0.00277,-13.82404c21.34859,1.05637 24.10012,23.56088 24.05311,40.41022c-0.04425,16.08887 -6.32991,34.92651 -25.89484,25.03758c-1.66475,-0.84067 1.48776,-13.32351 0,-13.82681c6.41564,2.17081 11.11952,-10.2429 17.88912,-8.19376c8.11633,2.45564 8.09421,14.27203 8.11357,21.35135c0.02212,7.88404 0.02212,15.47773 -3.94617,22.65384c-4.15357,7.51072 -13.61111,19.36859 -20.21202,7.51072c-0.74941,-1.3412 0.65263,-13.73831 0,-13.82681c30.03182,4.1038 15.72661,72.3059 9.21695,89.41242c1.51818,-3.98765 -1.54584,-9.76726 0,-13.82681c6.02849,-15.83999 17.20884,-58.14448 -9.21695,-61.75881c0,-4.60986 0,-9.21695 0,-13.82681c9.73684,17.48814 23.3756,-12.57686 24.09183,-21.41496c-0.0083,4.5269 -0.01383,9.05379 -0.01936,13.58069c-0.31249,-6.3631 -3.81896,-20.33923 -13.01102,-14.74767c-3.29908,2.00489 -8.73024,8.32374 -12.90594,6.9134c0,-4.60986 0,-9.21695 0,-13.82681c13.636,6.89128 24.37389,-0.97617 25.59065,-15.75426c-0.58349,7.08209 -1.36609,-2.8262 -2.34779,-5.23483c-1.29695,-3.18846 -2.79025,-6.47094 -5.13251,-9.05379c-4.48265,-4.94723 -9.58198,-7.42223 -16.26585,-7.75407z"/></g></g><path d="M171.33053,132.81096c19.66448,66.37143 -34.63615,145.03212 -57.51398,154.43435c-24.94909,10.25396 -116.51019,-30.67615 -136.17744,-97.05035c-19.66172,-66.37143 7.75684,-133.02769 61.24169,-148.87598c53.48761,-15.84552 112.78525,25.12054 132.44973,91.49197z" fill="url(#color-1)"/><path d="M431.57313,26.61557c-12.58792,68.06936 -96.66596,113.53466 -121.32192,111.53254c-26.88484,-2.18187 -89.91018,-80.19547 -77.32503,-148.27036c12.58792,-68.06936 67.26464,-115.03072 122.11834,-104.89014c54.85094,10.14611 89.11652,73.55584 76.5286,141.62797z" fill="url(#color-2)"/><path d="M1333.12231,249.34604c-6.37416,68.93215 -85.99443,121.81968 -110.72506,122.05474c-26.9761,0.26271 -96.80423,-71.72793 -90.43007,-140.66009c6.37692,-68.92939 56.57652,-120.64717 112.12156,-115.5119c55.54781,5.13804 95.40772,65.18509 89.03356,134.11724z" fill="url(#color-3)"/><g><path d="M1270.14951,35.88229c-12.58792,68.06936 -96.66596,113.53466 -121.32192,111.53254c-26.88761,-2.18187 -89.91295,-80.19547 -77.32779,-148.27036c12.59069,-68.06936 67.26464,-115.03072 122.11834,-104.89014c54.8537,10.14611 89.11929,73.5586 76.53137,141.62797z" fill="url(#color-4)"/><g fill="#8dc63f"><g><path d="M1150.3596,146.06534c0.97894,0.19358 -0.7743,13.67471 0.00277,13.82404c-7.02125,-1.38821 -16.65577,-2.64092 -17.55451,6.70877c0.01383,-4.29461 0.02489,-8.58645 0.03595,-12.88105c0.38439,17.65406 18.76574,30.98034 19.38242,47.89882c0.2074,5.66899 1.261,13.82681 -0.9983,19.21373c-4.78961,11.40988 -15.75703,18.95932 -17.54345,31.69933c0.00553,-4.5269 0.01383,-9.05379 0.01936,-13.58069c0.10232,3.8798 0.13827,19.05334 7.67388,18.88465c6.81661,-0.15209 9.93318,-6.88298 12.67088,-12.22013c0,4.60986 0,9.21695 0,13.82681c-12.33904,4.98318 -18.32328,14.28032 -19.49303,27.36325c0.01936,-3.46776 0.03872,-6.93553 0.05807,-10.40329c0.00553,1.24718 0.01106,2.48882 0.01936,3.73324c-0.01936,-1.13933 -0.03872,-2.28142 -0.06084,-3.42352c0.13274,2.56902 0.48117,5.11039 1.04254,7.61857c0.80472,4.47988 -0.79919,9.38287 0,13.82681c-3.52307,-19.62853 -2.78748,-43.96924 18.4339,-52.54186c-1.32461,0.53648 0.93193,12.01273 0,13.82681c-3.20229,6.24419 -14.35499,20.23968 -18.66895,6.10039c-1.98276,-6.4903 -1.76707,-13.20183 -1.76707,-19.92443c0,-6.60645 0.23506,-12.51049 4.11486,-18.30116c5.59156,-8.34033 13.53644,-15.45284 14.47667,-25.94462c0,4.60986 0,9.21695 0,13.82681c-1.485,-16.59217 -17.38029,-29.88802 -19.36306,-46.96689c-0.5669,-4.89469 -0.50606,-10.55815 -0.03595,-15.4556c0.90151,-9.34969 10.53326,-8.09698 17.55451,-6.70877z"/></g></g></g><g fill="#009933"><g><path d="M236.86683,155.28505c-1.46011,-0.48394 1.27483,-13.40924 0,-13.82681c33.71252,11.10016 0.19081,52.83775 -1.89427,72.55754c0.0083,-4.5269 0.01383,-9.05379 0.01936,-13.58069c0.18804,7.77896 12.05974,7.24248 12.93636,14.76703c0.51989,4.45223 0.59455,8.6943 0.58349,13.17695c-0.03872,14.2582 -3.31843,28.3809 -4.49924,42.59209c0.01659,-3.93511 0.03318,-7.87022 0.04978,-11.80256c0.07743,6.18058 3.60603,10.6577 7.55497,15.02697c2.3395,2.58838 -2.24547,11.34351 0,13.82681c-15.62429,-17.28351 -4.8615,-48.10899 -3.17187,-68.39567c0,4.60986 0,9.21695 0,13.82681c-0.7107,-6.09762 -1.756,-8.23248 -6.96871,-11.57027c-1.95511,-1.25271 -6.40181,-3.17187 -6.47094,-6.00913c-0.11891,-4.91128 -0.14933,-9.83086 -0.06637,-14.74214c0.26824,-15.74597 13.86275,-28.32836 15.79021,-43.90287c-0.01936,1.14209 -0.03872,2.28142 -0.05807,3.42352c0.00553,-0.75771 0.0083,-1.51542 0.01383,-2.27313c0.01936,3.46776 0.03872,6.93553 0.05807,10.40329c-1.08955,-7.96147 -6.706,-11.13611 -13.87658,-13.49773z"/></g></g><g><g fill="#ff9400"><g><path d="M1158.88521,93.35756c-2.1155,-1.27483 1.96064,-12.64323 0.00277,-13.82681c16.47326,9.94147 15.82893,50.8384 -5.53072,54.38359c0.09126,-0.01383 -0.06913,-6.54008 -0.06913,-6.9134c0,-2.45841 0,-4.91405 0,-7.37245c0,-0.39821 0.24335,-6.86916 0.06913,-6.9134c22.0178,5.57497 23.09353,49.16535 -1.84173,50.69736c0,-4.60986 0,-9.21695 0,-13.82681c9.51561,12.22013 4.61815,33.57425 9.21695,47.932c1.34673,4.20611 -1.32737,9.67876 0,13.82681c-4.64581,-14.49602 0.32631,-35.67316 -9.21695,-47.932c-0.77707,-0.99553 0.24612,-13.8434 0,-13.82681c9.90552,-0.60838 16.35158,-5.88192 17.47985,-15.91465c-0.01936,2.30355 -0.04425,4.60986 -0.06637,6.9134c0,-0.76047 0,-1.52371 0,-2.28142c0.01936,2.30355 0.04425,4.60709 0.06637,6.9134c-1.02318,-9.42988 -6.32162,-16.31563 -15.63812,-18.67448c0.02212,-2.30355 0.04425,-4.60986 0.06913,-6.9134c0,2.45841 0,4.91405 0,7.37245c-0.02212,-2.30355 -0.04425,-4.60986 -0.06913,-6.9134c10.42541,-1.73112 15.19566,-9.41052 15.96996,-19.49303c-0.01106,4.29461 -0.02489,8.58645 -0.03595,12.88382c-0.12444,-8.23248 -3.20505,-15.77638 -10.40605,-20.12077z"/></g></g><path d="M1295.58806,5.76751c-23.77934,65.01087 -114.26748,95.79487 -138.2404,89.70278c-26.14649,-6.63963 -75.25654,-94.08311 -51.47996,-159.09952c23.7821,-65.01087 85.53262,-102.18286 137.91962,-83.02167c52.38976,19.16672 75.57732,87.40477 51.80074,152.4184z" fill="url(#color-5)"/></g><path d="M-23.19602,679.43711h1327.37606v205.44144h-1327.37606z" fill="url(#color-6)"/><g><g fill="#8dc63f"><g><path d="M728.18022,70.47972c-0.29036,-0.01106 0.0802,-13.82404 0,-13.82681c39.12156,1.59008 34.65274,79.28843 -3.78854,78.65793c-9.01508,-0.14656 -6.23865,-7.1208 -6.10868,-14.77532c0.12168,-7.00189 8.77173,-18.76297 16.05845,-11.11675c17.70661,18.58599 8.97636,48.77267 -9.85022,62.46121c0,-4.60986 0,-9.21695 0,-13.82681c18.99526,-2.79855 18.25968,16.36541 16.01974,30.37473c-1.84726,11.55368 -6.23589,22.55152 -10.42541,33.41939c-2.10167,5.45053 -4.28631,10.88723 -6.13357,16.43178c-0.86832,2.61327 -1.77536,5.24036 -2.38651,7.93106c-1.20293,5.33438 0.87109,5.80173 -0.76047,-5.19611c0.66922,4.52137 -0.66645,9.33309 0,13.82681c-2.33396,-15.7515 2.75153,-29.87696 8.32927,-44.34809c4.20611,-10.91765 9.18376,-22.18096 11.04209,-33.80654c0.8379,-5.23483 2.80684,5.8515 -0.59179,-0.10508c-0.66369,-1.16698 -1.37992,-2.44181 -2.56072,-3.18293c-3.91299,-2.46117 -8.10804,-2.17081 -12.53262,-1.52095c0.98447,-0.14656 -1.261,-12.90871 0,-13.82681c9.49072,-6.89958 16.64194,-15.71002 18.66619,-27.48216c-0.01659,1.13933 -0.03872,2.28142 -0.05807,3.42352c0.0083,-1.25271 0.01659,-2.50542 0.02489,-3.75813c0.01936,3.46776 0.03872,6.93553 0.06084,10.40329c-0.99,-5.5805 -7.70153,-24.23562 -16.88253,-19.16948c-4.44394,2.45288 -7.43053,6.87192 -7.98083,11.94636c0,-4.60986 0,-9.21695 0,-13.82681c0.93469,6.01466 18.55834,-0.71623 21.59747,-2.99489c6.55391,-4.91958 11.3048,-11.97678 13.08016,-20.0461c0.46182,-2.10444 -0.05807,-7.31715 0.87109,-1.76153c-0.35673,-2.13486 -0.70517,-4.30567 -1.45181,-6.34927c-1.18081,-3.23547 -2.59114,-6.55391 -4.90299,-9.17547c-5.20994,-5.90681 -11.52602,-8.462 -19.3354,-8.78002z"/></g></g><path d="M792.97816,-67.64453c17.23926,56.46038 -32.56213,125.15194 -53.34381,133.74116c-22.65937,9.36351 -105.16945,-23.62724 -122.41147,-80.08486c-17.2365,-56.45761 8.13569,-114.23983 56.66778,-129.05663c48.53209,-14.8168 101.85101,18.94272 119.08751,75.40033z" fill="url(#color-7)"/></g><g><path d="M944.25171,-19.71253c-4.62368,69.07042 -82.87787,123.95731 -107.59743,124.82287c-26.9595,0.94299 -98.58789,-69.25294 -93.9642,-138.32612c4.62921,-69.07042 53.50421,-122.04368 109.16263,-118.31597c55.65566,3.72771 97.02546,62.74881 92.39901,131.81923z" fill="url(#color-8)"/><g fill="#27aae1"><g><path d="M835.10844,100.89869c-1.17804,4.25313 1.19187,9.52114 0,13.82127c-0.94299,3.40969 -1.49053,6.54837 -1.75877,10.07421c0.01659,-3.93511 0.03318,-7.87022 0.04978,-11.80256c0.11615,9.24737 4.02913,23.66319 12.99167,28.51917c8.59198,4.65687 11.5122,-3.92405 12.68471,-11.11952c0,4.60986 0,9.21695 0,13.82681c-6.36033,-0.66645 -13.8987,-0.41204 -18.6413,4.62368c-2.0436,2.17081 -3.8162,4.59603 -4.73153,7.47754c-1.40757,4.41905 0.30419,8.1274 -1.19187,0.02489c1.60391,8.686 7.51902,15.50538 13.50326,5.38969c0,4.60986 0,9.21695 0,13.82681c-5.35097,3.43458 -9.947,8.06379 -12.0791,14.21949c-0.74388,2.14869 -1.38821,11.10569 -2.19846,5.44776c0.40927,2.87598 0.83237,5.77407 1.73388,8.54773c4.19229,12.86999 12.16206,23.77381 25.44685,28.01587c1.42969,0.45628 -1.23888,13.43136 0,13.82681c-29.58107,-9.44647 -40.44064,-66.2221 -12.90317,-83.8817c-1.91086,1.22505 1.36609,11.51773 0,13.82681c-9.61516,16.26032 -13.89041,-7.87298 -13.91253,-15.57728c-0.04701,-16.99591 4.44394,-31.73528 24.97398,-29.59213c0.26271,0.02765 0.2157,12.50496 0,13.82681c-4.0319,24.7804 -22.26945,4.85044 -24.80805,-9.59857c-1.86662,-10.63834 -2.04913,-23.28434 0.84067,-33.72358z"/></g></g></g><g><path d="M1332.71857,380.12273c-12.58792,68.06936 -96.66596,113.53466 -121.32192,111.53254c-26.88484,-2.18187 -89.91018,-80.19547 -77.32503,-148.27036c12.58792,-68.06936 67.26188,-115.03072 122.11558,-104.89014c54.8537,10.14611 89.11929,73.55584 76.53137,141.62797z" fill="url(#color-9)"/><g fill="#fbb040"><g><path d="M1208.43218,501.41423c-1.54031,-0.54478 1.35503,-13.3484 -0.00553,-13.82681c12.65153,4.47159 12.87276,10.26225 12.01549,22.3856c-0.82684,11.75278 -17.76468,19.94378 -23.07694,30.15626c0,-4.60986 0,-9.21695 0,-13.82681c14.82234,4.57944 17.3637,16.53962 14.50432,30.80889c-1.78642,8.92659 -6.76407,16.64747 -9.87787,25.10948c-0.80749,2.1874 -1.66751,4.40522 -2.15698,6.69217c-1.50989,7.07379 -2.53031,-7.36969 -0.09126,-0.75218c1.50989,4.0955 3.69729,7.03784 6.8415,10.04379c2.35609,2.251 -2.24547,11.68089 0,13.82681c-9.13399,-8.73301 -8.30991,-20.52451 -7.55773,-32.26623c0.86832,-13.52538 12.88658,-24.6449 13.02485,-38.04584c0.01659,3.93511 0.03318,7.86745 0.04978,11.80256c-0.9181,-8.1274 -7.61027,-11.18865 -14.73108,-13.38988c-0.39268,-0.12168 -0.56137,-12.74555 0,-13.82681c5.11039,-9.82533 22.24733,-18.41454 23.04099,-29.66403c0.00553,4.5269 0.01106,9.05103 0.01936,13.57792c-1.35226,-5.47541 -7.24248,-7.12634 -11.9989,-8.80491z"/></g></g></g><g><path d="M1289.75592,145.84134c-12.58792,68.06936 -96.66596,113.53466 -121.32192,111.53254c-26.88761,-2.18187 -89.91295,-80.19547 -77.32779,-148.27036c12.59069,-68.06936 67.26464,-115.03072 122.11834,-104.88738c54.8537,10.14334 89.11929,73.55584 76.53137,141.6252z" fill="url(#color-10)"/><g fill="#662d91"><g><path d="M1169.71713,267.74122c-0.2074,-0.00553 -0.00277,-13.82681 -0.00277,-13.82957c5.69388,0.12721 21.06376,-0.42587 21.39007,8.50902c0.17145,4.71494 0.09126,9.46307 0.01383,14.18077c-0.24059,14.08398 -17.01803,23.48898 -19.5594,37.22729c0,-4.60986 0,-9.21695 0,-13.82681c1.63986,3.60603 12.82298,3.05296 12.92253,5.77684c0.2157,5.89852 0.05254,11.83021 0.05254,17.72873c0,4.93617 0.75218,10.82362 -0.31525,15.72661c-1.99659,9.1727 -7.89787,16.66407 -9.15335,26.05523c0.01383,-4.29461 0.02489,-8.58645 0.03595,-12.88105c-0.04978,3.57838 0.61391,7.00466 1.99106,10.27885c1.36609,4.19505 -1.34673,9.69536 0,13.82681c-2.58008,-7.9117 -2.20123,-15.86764 -2.06019,-24.10565c0.18528,-10.89276 8.61963,-19.38242 9.43265,-30.2807c-0.02212,2.30355 -0.04425,4.60986 -0.06913,6.9134c0,-5.53072 0,-11.06144 0,-16.59217c0.02212,2.30355 0.04425,4.60986 0.06913,6.9134c-2.8981,-3.21888 -12.83957,-0.58073 -12.93912,-6.47648c-0.06913,-4.08997 -0.7107,-8.84916 0.03595,-12.88105c2.56349,-13.85722 17.17013,-22.40772 19.52621,-36.28154c-0.02212,1.68964 -0.04425,3.3848 -0.06637,5.07444c0,-0.51712 0.00277,-1.02871 0.00277,-1.54584c0.01936,2.91746 0.04425,5.83215 0.06637,8.7496c-1.81408,-8.71365 -14.63982,-8.10804 -21.37348,-8.26013z"/></g></g></g><path d="M336.8291,19.24864c-0.62497,69.21975 -75.57179,128.54228 -100.20009,130.83476c-26.85719,2.50265 -102.42897,-63.43462 -101.80677,-132.6599c0.62497,-69.21975 46.35298,-124.93072 102.13308,-124.43019c55.78563,0.5033 100.49599,57.03281 99.87378,126.25532z" fill="url(#color-11)"/><g><path d="M144.73606,-69.98126c19.66448,66.37143 -34.63615,145.03212 -57.51674,154.43435c-24.95185,10.25119 -116.51019,-30.67892 -136.17744,-97.05035c-19.66172,-66.37143 7.75684,-133.02769 61.24169,-148.87598c53.48485,-15.84552 112.78525,25.11777 132.4525,91.49197z" fill="url(#color-12)"/><g fill="#009d9f"><g><path d="M79.24125,94.44711c2.10444,-3.1138 -2.16804,-10.61622 0,-13.82957c15.63812,-23.14331 28.19839,17.643 28.38643,29.64467c0.15209,9.43541 1.42416,20.84253 -2.77089,29.63914c-6.08933,12.76767 -18.82381,13.39264 -31.1435,9.85022c-0.16316,-0.04701 -0.7024,-13.27926 0,-13.82681c22.09523,-17.15907 23.66319,18.34264 23.66319,32.68933c0,8.65835 0.0636,17.41348 -2.65751,25.74275c-6.30226,19.29669 -16.64747,35.68698 -17.29733,56.5461c0.09955,-3.2576 -0.16869,-9.16441 -0.03872,-13.33181c0.79366,-25.52152 18.69108,-45.76396 19.76404,-70.76006c-0.37609,8.72471 -1.02595,-6.32162 -1.70623,-8.77726c-0.89321,-3.22165 -1.86662,-7.01296 -4.14804,-9.59027c-5.53902,-6.24972 -11.86063,-3.13315 -17.58217,1.31078c0,-4.60986 0,-9.21695 0,-13.82681c9.16164,2.63539 21.29605,4.05402 27.93568,-4.58497c2.60497,-3.38757 4.38863,-7.29226 5.14634,-11.51773c1.23059,-6.85256 0.97617,2.19846 0.3595,-2.13209c-0.34014,-2.40586 -0.71899,-4.81449 -1.33843,-7.17058c-3.11933,-11.86893 -14.66194,-33.70422 -26.57235,-16.07504z"/></g></g></g><g><path d="M1101.41547,-53.85091c19.66448,66.37143 -34.63615,145.03212 -57.51674,154.43435c-24.94909,10.25396 -116.51019,-30.67615 -136.17744,-97.05035c-19.66172,-66.37143 7.7596,-133.02769 61.24169,-148.87598c53.48485,-15.84552 112.78525,25.12054 132.4525,91.49197z" fill="url(#color-13)"/><g fill="#ec008c"><g><path d="M1039.51287,108.27391c-1.93022,-0.97064 1.7643,-12.94189 0,-13.82404c11.0172,5.53072 13.59175,18.85423 10.34245,30.47151c-4.39692,15.73767 -23.46132,29.91291 -39.84056,29.44556c0.43416,0.01106 -0.93193,-13.32627 0,-13.82681c29.13031,-15.64365 35.20858,62.58565 1.8445,52.54186c-0.27654,-0.08296 -0.44799,-13.65535 0,-13.82681c11.3048,-4.28078 12.17865,10.32862 12.73725,18.15736c0.92363,12.9253 -0.76877,29.91291 7.54114,40.83609c2.25653,2.96723 -2.18187,10.95913 0,13.82681c-7.41946,-9.75619 -6.51243,-24.41537 -7.22589,-36.06584c-0.48394,-7.84809 -0.0802,-27.84165 -13.0525,-22.93037c0,-4.60986 0,-9.21695 0,-13.82681c5.26248,1.58179 11.67535,2.13486 15.72384,-2.4667c1.92469,-2.19017 3.48989,-4.65134 4.26695,-7.49689c2.06572,-7.56879 1.70346,3.02807 0.71623,-1.54031c-2.54966,-11.7832 -10.56921,-19.81658 -22.54875,-13.38435c0,-4.60986 0,-9.21695 0,-13.82681c16.57834,0.47288 37.68911,-14.70619 40.15581,-31.59702c-0.02212,2.30355 -0.04425,4.60986 -0.06913,6.9134c0,-0.7024 0,-1.40757 -0.00277,-2.10997c0.02212,2.30355 0.04425,4.60986 0.06913,6.9134c-1.0536,-6.37416 -5.09656,-9.59304 -10.6577,-12.38329z"/></g></g></g><g><path d="M295.51737,177.21713c7.88958,68.77453 -59.19808,136.86048 -83.36181,142.16168c-26.34559,5.78514 -109.44746,-50.36276 -117.3398,-119.14005c-7.88958,-68.77176 30.64573,-129.68161 86.06357,-136.03917c55.42337,-6.36033 106.74847,44.24301 114.63804,113.01754z" fill="url(#color-14)"/><g fill="#ef4136"><g><path d="M210.91944,319.36222c-2.22612,2.65198 2.31184,11.07251 0.00277,13.82681c-2.95341,3.5203 -6.11421,7.22865 -7.85086,11.55091c-2.15975,5.36757 0.07743,6.76684 -1.93299,-0.00553c1.14762,3.86321 3.27419,7.72365 7.01849,9.65664c7.32544,3.78301 14.24714,1.03425 14.94401,-7.5522c-0.0083,4.5269 -0.01383,9.05103 -0.01936,13.58069c-0.13827,-3.21058 0.61114,-9.34692 -3.67793,-4.96106c-2.17357,2.22058 -4.37757,4.52137 -5.5805,7.45818c-2.34503,5.7243 -3.18017,4.64857 -0.71623,10.59133c1.15592,2.79301 2.33673,5.73536 4.3112,8.08315c0.10232,0.12444 6.38245,6.30502 6.40181,4.96935c0.04425,-2.98382 0.4148,-5.56667 1.85003,-8.20483c0,4.60986 0,9.21695 0,13.82681c-19.85806,14.91912 -11.42924,36.39215 3.68623,52.54186c2.34779,2.50818 -2.24824,11.42371 0,13.82681c-17.31946,-18.5058 -27.56788,-62.25381 -3.68623,-80.19547c-2.01871,1.51818 1.38268,11.28544 0,13.82681c-1.50712,2.77089 -1.76153,5.08273 -1.80855,8.27396c0.00277,0.31525 -0.0083,0.63327 -0.03595,0.94575c-13.95678,-10.08804 -13.63046,-27.6149 -12.56027,-43.1424c0.37609,-5.46988 11.21077,-25.99439 11.75832,-13.33181c0.22123,5.14634 0.2793,10.34245 0.09402,15.49155c-0.55031,15.05739 -19.9742,10.0272 -21.98185,-1.85832c-2.4667,-14.63153 0.13274,-27.70339 9.78385,-39.19899z"/></g></g></g><g><path d="M670.31504,26.61833c-12.58792,68.06936 -96.66596,113.53466 -121.32192,111.53254c-26.88761,-2.18187 -89.91295,-80.19547 -77.32779,-148.2676c12.58792,-68.06936 67.26464,-115.03072 122.11558,-104.89014c54.85647,10.14334 89.12206,73.55307 76.53413,141.6252z" fill="url(#color-15)"/><g fill="#662d91"><g><path d="M549.35262,132.23853c-1.51265,3.99318 1.54307,9.76726 0.00277,13.82957c-2.74047,7.21483 -4.37204,13.02762 -0.44799,20.20373c3.69729,6.76407 5.35097,7.36139 7.44712,-0.36226c-0.02212,2.91746 -0.04425,5.83491 -0.06637,8.75237c0,-0.50883 -0.00277,-1.02042 -0.00277,-1.52924c0.02212,1.68964 0.04425,3.38204 0.06637,5.07444c-2.71835,-6.79173 -15.68789,-0.3429 -19.55387,2.12933c-10.40882,6.65622 -17.09546,17.44666 -18.16013,29.78017c0.0083,-4.52966 0.01383,-9.05379 0.01936,-13.58069c0.30142,9.52667 6.72812,24.24392 17.7951,26.03864c2.02148,0.32631 4.12315,0.06084 5.12974,-2.04084c3.34609,-6.97424 2.49159,9.12569 0.70517,4.0319c-1.38821,-3.95723 -4.8615,-7.38075 -9.05656,-4.0955c-9.07868,7.11251 -14.51815,19.64512 -14.78639,30.96651c-0.01383,-4.29737 -0.02489,-8.58921 -0.03595,-12.88382c1.40204,15.02421 10.01337,25.73722 23.57194,31.95375c1.83067,0.84067 -1.65922,13.06633 0,13.82681c-18.50027,-8.48136 -23.74339,-23.5194 -23.63278,-42.35704c0.05807,-9.92765 1.85556,-18.63024 7.64346,-27.07565c1.92746,-2.80961 8.73024,-13.26544 13.56963,-8.64728c5.46159,5.21271 3.66963,17.23373 3.22718,24.0061c-0.17698,2.77089 -2.54966,8.09698 -6.33821,6.14187c-9.73407,-5.02466 -16.01421,-12.01826 -17.70937,-23.02993c-1.86938,-12.1427 -0.28483,-27.72828 7.6158,-37.28536c2.67687,-3.23824 29.80506,-23.84571 30.02906,-10.76279c0.0802,4.71218 0.15763,9.45477 -0.01383,14.16418c-0.13827,3.74706 -2.39204,9.8917 -5.61921,3.98765c-2.59667,-4.74812 -4.04296,-9.16164 -4.91405,-14.49879c-1.8998,-11.60622 -0.5669,-25.99163 3.51477,-36.73782z"/></g></g></g><g><g fill="#ec008c"><g><path d="M59.88372,400.76062c-0.06637,0 -0.14103,-13.82681 0,-13.82681c15.5275,-0.12444 16.00591,16.89912 15.97273,28.43897c-0.02765,9.97466 -2.18464,26.19073 -15.97273,18.57216c-0.5033,-0.2793 -0.5586,-13.48114 0,-13.82681c15.71831,-9.71195 22.64001,7.19823 22.67596,20.38348c0.03872,14.65918 -2.15145,28.8676 -20.83146,26.62766c-0.0636,-0.0083 -0.39545,-13.74384 0,-13.82681c16.4539,-3.43181 14.17801,19.77786 14.15035,30.18392c-0.04148,14.67577 -6.2193,36.21793 2.44181,49.09069c2.16528,3.21888 -2.10167,10.70471 0,13.82681c-7.07656,-10.51667 -4.56561,-29.22434 -3.99318,-41.31449c0.26271,-5.58879 0.66369,-11.16376 0.9817,-16.74979c0.15486,-2.72388 0.32631,-5.45329 0.39545,-8.1827c-0.2074,8.10251 -0.27377,-0.74941 -0.74388,-2.88427c-1.63156,-7.41393 -5.2293,-11.81362 -13.23502,-10.14334c0,-4.60986 0,-9.21695 0,-13.82681c11.57304,1.38821 19.72532,-4.06232 20.75127,-15.96166c-0.01936,1.14209 -0.03872,2.28142 -0.05807,3.42352c-0.0636,9.94977 -1.14209,0.3595 -2.77642,-2.35332c-1.15592,-1.91086 -2.45288,-3.99318 -4.36374,-5.25972c-5.26801,-3.48989 -10.24013,-2.38927 -15.39476,0.79366c0,-4.60986 0,-9.21695 0,-13.82681c8.29608,4.58497 14.77256,-0.20187 15.66024,-9.35522c-0.9983,10.29267 -0.04701,3.05849 -1.82237,-0.64156c-0.8462,-1.7643 -1.71452,-3.68899 -3.13592,-5.09103c-3.15804,-3.11656 -6.26907,-4.30567 -10.70195,-4.26972z"/></g></g><path d="M149.58373,257.14159c11.46795,68.26847 -51.97496,139.75858 -75.82343,146.31525c-26.01099,7.15122 -111.93075,-44.58039 -123.40147,-112.85162c-11.46519,-68.26847 23.83741,-131.10577 78.84597,-140.3476c55.01686,-9.23907 108.91098,38.6155 120.37893,106.88397z" fill="url(#color-16)"/></g><g><path d="M159.4616,404.92525c20.70149,66.05618 -32.36302,145.55754 -55.09429,155.3165c-24.78593,10.64387 -116.97477,-28.85101 -137.67903,-94.90719c-20.69873,-66.05618 5.67176,-133.13554 58.90219,-149.8162c53.23043,-16.68066 113.16687,23.35071 133.87113,89.40689z" fill="url(#color-17)"/><g fill="#f7941e"><g><path d="M98.59877,569.16558c-0.72176,-0.09955 0.51989,-13.75767 0,-13.82957c19.16119,2.62433 17.54345,32.91886 15.20949,47.24343c-1.94958,11.96848 -7.35863,27.80017 -19.7032,32.88014c-6.47094,2.66304 -7.14293,1.37438 -7.25078,-4.97488c-0.06084,-3.61986 -0.04978,-7.23972 -0.01383,-10.85681c0.20464,-20.42772 20.23138,7.86745 21.57811,15.887c3.09167,18.43943 0.20464,33.99182 -20.88124,36.88992c0,-4.60986 0,-9.21695 0,-13.82681c12.17035,11.90764 9.26949,35.40492 9.28608,51.15918c0.0083,7.82044 -0.12997,7.82044 -0.13827,0c-0.01383,-11.99337 0.15486,-28.23157 -9.15058,-37.33237c-0.79919,-0.7826 0.12444,-13.8434 0,-13.82681c6.8581,-0.94299 15.82616,-2.87598 19.28839,-9.77555c0.74941,-1.49606 1.49053,-3.01701 1.74494,-4.69282c0.49223,7.5522 0.44246,9.29714 -0.15209,5.23483c-0.69134,-2.97 -1.59285,-5.89575 -3.00042,-8.61686c-1.17804,-2.27589 -13.50326,-21.36518 -17.49091,-13.88764c-1.91916,3.59773 0.81025,3.96276 -0.75771,-5.52519c-0.37056,2.38927 0.51436,2.99765 2.65198,1.8279c3.65304,-1.07296 7.17611,-2.62156 9.99125,-5.27631c5.46435,-5.14634 9.46307,-11.67812 11.63664,-18.88465c1.4767,-4.90299 2.6907,-9.97189 2.84003,-15.12099c-0.24888,8.63346 -1.60114,-2.36991 -2.78472,-4.73706c-2.79025,-5.58326 -6.59539,-9.09527 -12.90317,-9.95807z"/></g></g></g><g><g fill="#ec008c"><g><path d="M447.81154,30.8438c-1.3791,-3.70282 1.3467,-10.20971 -0.00405,-13.82404c4.43094,11.89935 5.5326,22.38283 5.47793,35.34408c-0.06682,15.34775 -5.94573,25.15372 -14.92913,33.78995c0,-4.60986 0,-9.21695 0,-13.82681c10.29971,8.47307 11.5553,18.53068 11.52492,33.41109c-0.02633,13.40924 -3.92265,28.4611 -11.32848,37.71399c-6.47226,8.08868 -23.46091,16.70002 -26.51073,-1.52095c-0.44349,-2.64922 -1.24747,-15.72661 1.02876,-17.3001c18.45079,-12.74831 16.98461,30.48534 16.98461,44.34256c0,11.14994 2.29242,22.0178 5.86674,32.0616c4.16971,11.72237 8.94897,15.28692 11.8874,0.34567c0,4.60986 0,9.21695 0,13.82681c-2.08992,1.94405 -4.33981,4.16187 -5.44957,7.41117c-0.56906,1.4131 -0.99229,2.90639 -1.26771,4.47435c-0.29769,-4.63751 -0.20859,-4.98318 0.26731,-1.04531c1.37303,6.95488 3.48724,13.52538 6.15836,19.73915c4.96153,11.53985 10.98421,21.99292 16.49454,33.02394c1.59579,3.19123 -1.54719,10.73237 0,13.82681c-8.28675,-16.59493 -21.1766,-34.68592 -23.0478,-55.46208c-1.15432,-12.81745 -1.77601,-27.77529 6.84691,-35.79483c-1.12799,1.04807 0.44553,11.56474 0,13.82681c-3.29283,16.74703 -8.96921,9.51008 -12.64479,-2.66581c-2.81085,-9.31374 -5.05468,-18.60258 -5.18631,-28.70168c-0.15796,-12.17865 1.07127,-25.8423 -2.25193,-37.4098c-1.23126,-4.28631 -3.33941,-9.69259 -7.21344,-10.06038c-2.85136,-0.27101 -8.30701,0.10232 -8.45484,5.31502c-0.00607,-4.5269 -0.01012,-9.05379 -0.01417,-13.58069c1.80437,10.78214 12.83516,13.66365 19.16363,8.88234c10.38274,-7.84256 17.44228,-23.95909 18.62697,-40.00095c-0.01417,3.46776 -0.03039,6.93553 -0.04456,10.40329c-0.00405,-1.04254 -0.01012,-2.08232 -0.01417,-3.12209c0.01215,1.13933 0.02836,2.28142 0.04253,3.42352c-0.95585,-10.25396 -5.12962,-16.32946 -11.46011,-21.53663c-0.39693,-0.32631 -0.43944,-13.4037 0,-13.82681c5.48805,-5.27907 11.75578,-11.96848 13.71811,-21.2435c0.73917,-3.48712 0.93357,-3.40139 -0.56095,-8.84362c-1.08141,-3.9434 -2.30863,-7.64346 -3.70596,-11.39605z"/></g></g><path d="M512.02578,-69.98126c19.66448,66.37143 -34.63615,145.03212 -57.51674,154.43435c-24.94909,10.25396 -116.51019,-30.67615 -136.17744,-97.05035c-19.66172,-66.37143 7.75684,-133.02769 61.24169,-148.87598c53.48761,-15.84552 112.78802,25.11777 132.4525,91.49197z" fill="url(#color-18)"/></g></g><text transform="translate(251.07184,415.69367) scale(1.96409,1.96409)" font-size="40" xml:space="preserve" fill="#ff0000" fill-rule="nonzero" stroke="none" stroke-width="1" stroke-linecap="butt" stroke-linejoin="miter" stroke-miterlimit="10" stroke-dasharray="" stroke-dashoffset="0" font-family="Handwriting" font-weight="normal" text-anchor="start" style="mix-blend-mode: normal"><tspan x="0" dy="0">Herzlichen Glückwunsch</tspan></text><text transform="translate(373.8883,530.93392) scale(0.89042,0.89042)" font-size="40" xml:space="preserve" fill="#bf0000" fill-rule="nonzero" stroke="none" stroke-width="1" stroke-linecap="butt" stroke-linejoin="miter" stroke-miterlimit="10" stroke-dasharray="" stroke-dashoffset="0" font-family="Handwriting" font-weight="normal" text-anchor="start" style="mix-blend-mode: normal"><tspan x="0" dy="0">Ihr habt den Escape-Room geschafft!</tspan></text></g></g></svg>