<svg version="1.1" xmlns="http://www.w3.org/2000/svg" xmlns:xlink="http://www.w3.org/1999/xlink" width="63.33333" height="93.95889" viewBox="0,0,63.33333,93.95889"><g transform="translate(-608.33334,-328.95425)"><g data-paper-data="{&quot;isPaintingLayer&quot;:true}" fill-rule="nonzero" stroke="none" stroke-linecap="butt" stroke-linejoin="miter" stroke-miterlimit="10" stroke-dasharray="" stroke-dashoffset="0" style="mix-blend-mode: normal"><path d="M608.33335,391.04575v-62.0915h63.33333v62.0915z" fill="#000000" stroke-width="0"/><path d="M670.0803,394.0347c-0.19941,0.405 -3.75347,3.13302 -4.40299,3.83191c-1.69075,1.81926 -2.80675,4.17721 -4.5,6c-4.09738,4.41085 -8.68473,8.95505 -13.18682,12.93149l-2.14626,0.61856c0,0 -0.22551,0 -0.54108,-0.06773c-0.64339,0.73812 -1.18018,1.57159 -1.58639,2.4764c-0.54891,0.39941 -1.05561,0.85331 -1.51216,1.35376c-0.91948,0.44993 -1.75974,1.0368 -2.49419,1.73405c-1.16644,-0.06152 -2.12093,-0.92257 -2.32558,-2.04526c-0.39343,-0.08254 -0.65865,-0.21515 -0.65865,-0.21515l-1.88197,-1.23607c-5.90132,-7.88052 -13.1757,-13.92219 -20.19995,-20.66692c-2.20621,-2.11841 -2.70239,-4.4965 -4.68149,-6.68682c0,0 -1.64626,-1.88144 0.23518,-3.5277c0.65312,-0.57148 1.27789,-0.71785 1.8153,-0.6654c0.17068,-0.35861 0.46572,-0.71429 0.94421,-1.03328c0.78468,-0.52312 1.47069,-0.5529 2.02081,-0.38711c0.05085,-2.42292 2.4992,-2.42292 2.4992,-2.42292l4.0015,2.5c-0.57635,2.60669 1.60476,2.26981 3.66665,3.16451l0.2823,-0.01882l0.01034,0.15506c0.10752,0.05371 0.21432,0.11137 0.32001,0.1736c0.60635,-0.09219 1.21554,-0.16166 1.85454,-0.21269c0.315,-0.62163 0.88212,-1.09388 1.56684,-1.28221l2.4462,-0.73386l0.01545,0.0515c0.11148,-0.04707 0.22471,-0.09067 0.33989,-0.13044c1.48918,-0.51422 3.15088,-0.01595 4.72632,-0.02393l0.10896,0.05273l0.00409,-0.04503l1.65081,0.15007c0.39404,-0.2594 0.86582,-0.41034 1.37285,-0.41034c1.38071,0 2.5,1.11929 2.5,2.5c0,0.07373 -0.00319,0.14671 -0.00944,0.21882c0.11244,0.33133 0.14836,0.62644 0.15984,0.78118h1.00973c0.00032,-0.6849 0.00166,-1.21195 0.00166,-1.38715l2.5,-5.503c0.43488,1.32459 1.07354,2.61271 1.59109,3.92251l5.37162,-3.73221c0.62931,2.16636 1.04338,3.88889 1.28637,5.60928c0.73384,-0.03986 1.50807,0.02352 2.27647,0.05527c0.65654,-0.55719 1.37449,-1.01516 2.17976,-1.30856c0.2061,-0.07509 0.41731,-0.08456 0.63148,-0.05592l1.67822,-4.49038c0.28254,0.79019 0.70552,1.56461 1.11433,2.34062l0.9411,-0.96824c0,0 1.76777,-1.76777 3.53553,0c0.58493,0.58493 0.78277,1.16987 0.78564,1.69076c0.65545,-0.30735 1.59079,-0.43123 2.59285,0.44557c1.58213,1.38436 0.6697,2.93502 0.33934,3.39337c0.00913,1.06044 0.20994,2.17293 -0.24954,3.1061z" fill="#000000" stroke-width="0.5"/><path d="" fill="#ffffff" stroke-width="0.5"/></g></g></svg>