<svg version="1.1" xmlns="http://www.w3.org/2000/svg" xmlns:xlink="http://www.w3.org/1999/xlink" width="476.22828" height="893.26706" viewBox="0,0,476.22828,893.26706"><defs><radialGradient cx="598.98893" cy="562.51707" r="228.9962" gradientUnits="userSpaceOnUse" id="color-1"><stop offset="0" stop-color="#0033cc"/><stop offset="1" stop-color="#00ffff"/></radialGradient><radialGradient cx="728.86255" cy="69.73116" r="515.80382" gradientUnits="userSpaceOnUse" id="color-2"><stop offset="0" stop-color="#00ffff"/><stop offset="1" stop-color="#0033cc"/></radialGradient></defs><g transform="translate(-401.88586,86.63353)"><g data-paper-data="{&quot;isPaintingLayer&quot;:true}" fill-rule="nonzero" stroke-linejoin="miter" stroke-miterlimit="10" stroke-dasharray="" stroke-dashoffset="0" style="mix-blend-mode: normal"><g><g fill="url(#color-1)" stroke="none" stroke-width="1" stroke-linecap="butt"><g><path d="M607.78079,478.5154c-5.35615,6.1333 4.92693,26.14082 -0.62952,32.51084c-7.10555,8.14153 -14.70795,16.71553 -18.9904,26.79831c-5.32493,12.52088 -0.12877,15.91432 -4.54453,-0.1021c2.52069,9.13654 7.34357,18.3108 16.05804,23.02832c17.05045,9.23149 33.45122,3.08648 35.48482,-17.06996c-0.22762,10.64336 -0.44873,21.28022 -0.66984,31.93074c-0.17754,-7.55558 1.86646,-21.94877 -8.41987,-11.83412c-5.21308,5.12138 -10.50094,10.43005 -13.46386,17.27937c-5.77757,13.352 -7.6915,10.78384 -2.17146,24.87072c2.58963,6.61975 5.23063,13.59263 9.76541,19.20371c0.23477,0.2972 14.7164,15.11831 14.82371,11.9785c0.24127,-7.01385 1.23108,-13.06976 4.72728,-19.20696c-0.21201,10.83911 -0.42402,21.67172 -0.63603,32.51084c-47.37747,34.16594 -28.5464,85.0422 6.25101,123.7091c5.40492,6.00583 -5.81138,26.75668 -0.63538,32.51084c-39.87197,-44.30854 -61.95665,-147.64334 -4.97961,-188.73078c-4.81637,3.47733 2.73205,26.59865 -0.63603,32.51084c-3.67113,6.44546 -4.37545,11.86989 -4.63298,19.37084c-0.0078,0.74138 -0.04878,1.48861 -0.12812,2.22219c-32.35216,-24.36151 -30.779,-65.5569 -27.54814,-102.01657c1.13548,-12.84409 27.55464,-60.60461 28.25961,-30.80631c0.28355,12.11117 0.18144,24.33094 -0.491,36.4291c-1.98677,35.37881 -47.42624,22.65828 -51.60009,-5.38021c-5.12723,-34.51582 1.58616,-65.13158 24.80698,-91.71723z"/></g></g><path d="M643.70133,624.59598c0,0 0.70886,19.61407 -0.65033,29.26502c-0.62432,4.42227 -5.20267,12.35634 -5.20267,12.35634" fill="none" stroke="#007fdf" stroke-width="2" stroke-linecap="round"/></g><path d="M874.6856,239.52357c-22.14192,161.28084 -214.69406,277.26398 -272.8339,275.25184c-63.4017,-2.19097 -219.97477,-178.58037 -197.84001,-339.87356c22.14842,-161.28149 145.46147,-277.56963 275.43003,-259.72837c129.96792,17.84126 217.38514,163.06861 195.24387,324.3501z" fill="url(#color-2)" stroke="none" stroke-width="1" stroke-linecap="butt"/></g></g></svg>